# xmcd
#
# Track frame offsets:
#	150
#	12672
#	27220
#	41431
#	55469
#	70244
#	83892
#	98434
#	114247
#	128416
#	142787
#	157007
#	174717
#	189161
#	202613
#	217319
#	230209
#	244149
#	256792
#
# Disc length: 3622 seconds
#
# Revision: 1
# Processed by: cddbd v1.5.2PL0 Copyright (c) Steve Scherf et al.
# Submitted via: audiograbber 1.83.01
#
DISCID=fc0e2413
DTITLE=Charley Pride - Country Legend. Nickels And Dimes And Love
DYEAR=1900
DGENRE=Country
TTITLE0=I'm Gonna Love Her On The Radio
TTITLE1=Shouldn't It Be Easier Than That
TTITLE2=I Made Love To You In My Mind
TTITLE3=She's Soft To The Touch (But Hard To Hold)
TTITLE4=White Houses
TTITLE5=Amy's Eyes
TTITLE6=Nickels And Dimes And Love
TTITLE7=She's Taking It Easy
TTITLE8=On The Other Hand
TTITLE9=Look In The Mirror
TTITLE10=Have I Got Some Blues For You
TTITLE11=The More I Do
TTITLE12=You Hold My World Together
TTITLE13=Your Used To Be
TTITLE14=Leavin' Never Gets Me Anywhere
TTITLE15=I Had Her Leavin' Comin'
TTITLE16=I Can't Stop The Mississippi
TTITLE17=Where Was I
TTITLE18=I Wrote The Songs That Broke Her Heart
EXTD=
EXTT0=
EXTT1=
EXTT2=
EXTT3=
EXTT4=
EXTT5=
EXTT6=
EXTT7=
EXTT8=
EXTT9=
EXTT10=
EXTT11=
EXTT12=
EXTT13=
EXTT14=
EXTT15=
EXTT16=
EXTT17=
EXTT18=
PLAYORDER=
